<svg width="20" height="20" viewBox="0 0 20 20" fill="none" xmlns="http://www.w3.org/2000/svg">
<rect width="20" height="20" fill="#E5E5E5"/>
<rect width="411" height="731" transform="translate(-77 -580)" fill="#F9F9F9"/>
<rect x="-34" y="-15" width="339" height="51" fill="#3B5998"/>
<path fill-rule="evenodd" clip-rule="evenodd" d="M19.625 10.058C19.625 4.74278 15.3152 0.433014 10 0.433014C4.68477 0.433014 0.375 4.74278 0.375 10.058C0.375 14.8619 3.89414 18.8438 8.49609 19.5666V12.8411H6.0516V10.058H8.49609V7.93708C8.49609 5.52524 9.9334 4.19192 12.1317 4.19192C13.1848 4.19192 14.2866 4.38012 14.2866 4.38012V6.74899H13.0723C11.8773 6.74899 11.5035 7.49063 11.5035 8.2529V10.0584H14.1727L13.7464 12.8415H11.5035V19.5674C16.1059 18.8451 19.625 14.8632 19.625 10.058Z" fill="white"/>
</svg>
